# xmcd CD database file
#
# Track frame offsets:
#	183
#	14525
#	28135
#	42195
#	54288
#	63408
#	73268
#	83153
#	96010
#	107935
#
# Disc length: 1621 seconds
#
# Revision: 0
# Processed by: cddbd v1.5.1PL0 Copyright (c) Steve Scherf et al.
# Submitted via: CDex 1.51
#
DISCID=8406530a
DTITLE=Country - Country Stars Volume 1
DYEAR=1999
DGENRE=Country
TTITLE0=Bobby Helms - My Special Angel
TTITLE1=Oakridge Boys - The Old Country Church
TTITLE2=Mac Davis - I Feel The Country Calling Me
TTITLE3=Freddy Fender - Youll Lose a Good Thing
TTITLE4=Del Reeves - Good Time Charlie
TTITLE5=Ernest Tubb - Half My Hearts In Texas
TTITLE6=Johnny Lee - Red Sails In The Sunset
TTITLE7=Hank Williams Sr. - Jambalaya
TTITLE8=Willie Nelson - I Hope So
TTITLE9=Ricky Scaggs - Another Song, Another Drink
EXTD=YEAR: 1999
EXTT0=
EXTT1=
EXTT2=
EXTT3=
EXTT4=
EXTT5=
EXTT6=
EXTT7=
EXTT8=
EXTT9=
PLAYORDER=
